<svg xmlns="http://www.w3.org/2000/svg" viewBox="0 0 64 64">
  <defs>
    <linearGradient id="a" x1="12" y1="16" x2="52" y2="48" gradientUnits="userSpaceOnUse">
      <stop offset="0" stop-color="#4fc3f7"/>
      <stop offset="1" stop-color="#0288d1"/>
    </linearGradient>
    <linearGradient id="b" x1="38" y1="10" x2="58" y2="30" gradientUnits="userSpaceOnUse">
      <stop offset="0" stop-color="#ffeb3b"/>
      <stop offset="1" stop-color="#fbc02d"/>
    </linearGradient>
  </defs>
  <circle cx="48" cy="20" r="12" fill="url(#b)"/>
  <path d="M46,48H18c-6.6,0-12-5.4-12-12c0-5.7,4-10.4,9.3-11.7C16.7,20.1,20.8,17,25.7,17c3.5,0,6.6,1.6,8.7,4.1 c2.3-1.9,5.2-3.1,8.6-3.1c7.2,0,13,5.8,13,13C56,42.4,51.6,48,46,48z" fill="url(#a)"/>
  <path d="M32,26l-3,7h4l-2,8l6-9h-4L32,26z" fill="#ffffff" stroke="#0277bd" stroke-width="1" stroke-linejoin="round"/>
</svg>